<?xml version="1.0" encoding="iso-8859-1"?>
<!-- Generator: Adobe Illustrator 19.0.0, SVG Export Plug-In . SVG Version: 6.00 Build 0)  -->
<svg xmlns="http://www.w3.org/2000/svg" xmlns:xlink="http://www.w3.org/1999/xlink" version="1.1" id="Capa_1" x="0px" y="0px" viewBox="0 0 512 512" style="enable-background:new 0 0 512 512;" xml:space="preserve">
<g>
	<g>
		<g>
			<path d="M394.667,266.667c-26.368,0-52.139,8.939-72.491,25.152c-28.501,22.251-44.843,55.851-44.843,92.181     c0,64.704,52.651,117.333,117.333,117.333c11.093,0,21.867-1.515,31.979-4.459C476.885,482.731,512,436.309,512,384     C512,319.296,459.349,266.667,394.667,266.667z M420.757,476.352c-8.256,2.411-17.045,3.648-26.091,3.648     c-52.928,0-96-43.072-96-96c0-29.717,13.355-57.195,36.715-75.435C352.043,295.296,373.099,288,394.667,288     c52.928,0,96,43.072,96,96C490.667,426.795,461.952,464.768,420.757,476.352z"/>
			<path d="M311.445,291.84c3.755,0,7.403-1.984,9.344-5.504c2.859-5.163,0.981-11.648-4.181-14.507     c-14.656-8.085-30.315-14.208-46.443-18.645c42.112-20.971,71.168-64.363,71.168-114.517c0-70.592-57.408-128-128-128     s-128,57.408-128,128c0,50.133,29.035,93.483,71.083,114.475c-35.2,9.664-67.52,28.139-93.995,54.613     C22.165,348.011,0,401.6,0,458.667v32c0,5.888,4.779,10.667,10.667,10.667s10.667-4.779,10.667-10.667v-32     c0-51.371,19.968-99.584,56.192-135.829c36.224-36.245,84.459-56.171,135.808-56.171c32.533,0,64.683,8.256,92.971,23.851     C307.925,291.413,309.696,291.84,311.445,291.84z M106.667,138.667C106.667,79.851,154.517,32,213.333,32     C272.149,32,320,79.851,320,138.667c0,58.816-47.851,106.667-106.667,106.667C154.517,245.333,106.667,197.483,106.667,138.667z"/>
			<path d="M448,373.333h-42.667v-42.667c0-5.888-4.779-10.667-10.667-10.667S384,324.779,384,330.667v42.667h-42.667     c-5.888,0-10.667,4.779-10.667,10.667s4.779,10.667,10.667,10.667H384v42.667c0,5.888,4.779,10.667,10.667,10.667     s10.667-4.779,10.667-10.667v-42.667H448c5.888,0,10.667-4.779,10.667-10.667S453.888,373.333,448,373.333z"/>
		</g>
	</g>
</g>
<g>
</g>
<g>
</g>
<g>
</g>
<g>
</g>
<g>
</g>
<g>
</g>
<g>
</g>
<g>
</g>
<g>
</g>
<g>
</g>
<g>
</g>
<g>
</g>
<g>
</g>
<g>
</g>
<g>
</g>
</svg>
