<?xml version="1.0" encoding="iso-8859-1"?>
<!-- Generator: Adobe Illustrator 19.0.0, SVG Export Plug-In . SVG Version: 6.00 Build 0)  -->
<svg xmlns="http://www.w3.org/2000/svg" xmlns:xlink="http://www.w3.org/1999/xlink" version="1.1" id="Capa_1" x="0px" y="0px" viewBox="0 0 512 512" style="enable-background:new 0 0 512 512;" xml:space="preserve">
<g>
	<g>
		<g>
			<path d="M224,0H10.667C4.779,0,0,4.779,0,10.667V224c0,5.888,4.779,10.667,10.667,10.667H224c5.888,0,10.667-4.779,10.667-10.667     V10.667C234.667,4.779,229.888,0,224,0z M213.333,213.333h-192v-192h192V213.333z"/>
			<path d="M501.333,0H288c-5.888,0-10.667,4.779-10.667,10.667V224c0,5.888,4.779,10.667,10.667,10.667h213.333     c5.888,0,10.667-4.779,10.667-10.667V10.667C512,4.779,507.221,0,501.333,0z M490.667,213.333h-192v-192h192V213.333z"/>
			<path d="M224,277.333H10.667C4.779,277.333,0,282.112,0,288v213.333C0,507.221,4.779,512,10.667,512H224     c5.888,0,10.667-4.779,10.667-10.667V288C234.667,282.112,229.888,277.333,224,277.333z M213.333,490.667h-192v-192h192V490.667z     "/>
			<path d="M501.333,277.333H288c-5.888,0-10.667,4.779-10.667,10.667v213.333c0,5.888,4.779,10.667,10.667,10.667h213.333     c5.888,0,10.667-4.779,10.667-10.667V288C512,282.112,507.221,277.333,501.333,277.333z M490.667,490.667h-192v-192h192V490.667z     "/>
		</g>
	</g>
</g>
<g>
</g>
<g>
</g>
<g>
</g>
<g>
</g>
<g>
</g>
<g>
</g>
<g>
</g>
<g>
</g>
<g>
</g>
<g>
</g>
<g>
</g>
<g>
</g>
<g>
</g>
<g>
</g>
<g>
</g>
</svg>
