<?xml version="1.0" encoding="iso-8859-1"?>
<!-- Generator: Adobe Illustrator 19.0.0, SVG Export Plug-In . SVG Version: 6.00 Build 0)  -->
<svg xmlns="http://www.w3.org/2000/svg" xmlns:xlink="http://www.w3.org/1999/xlink" version="1.1" id="Capa_1" x="0px" y="0px" viewBox="0 0 512 512" style="enable-background:new 0 0 512 512;" xml:space="preserve">
<g>
	<g>
		<g>
			<path d="M501.333,405.333h-11.349L469.312,95.296c-0.384-5.611-5.013-9.963-10.645-9.963h-96V64H416     c5.888,0,10.667-4.779,10.667-10.667V10.667C426.667,4.779,421.888,0,416,0H288c-5.888,0-10.667,4.779-10.667,10.667v42.667     C277.333,59.221,282.112,64,288,64h53.333v21.333h-288c-5.632,0-10.261,4.352-10.645,9.963L22.016,405.333H10.667     C4.779,405.333,0,410.112,0,416v85.333C0,507.221,4.779,512,10.667,512h490.667c5.888,0,10.667-4.779,10.667-10.667V416     C512,410.112,507.221,405.333,501.333,405.333z M298.667,42.667V21.333h106.667v21.333H298.667z M63.317,106.667h385.365     l19.925,298.667H43.392L63.317,106.667z M490.667,490.667H21.333v-64H32h448h10.667V490.667z"/>
			<path d="M309.333,448H202.667c-5.888,0-10.667,4.779-10.667,10.667s4.779,10.667,10.667,10.667h106.667     c5.888,0,10.667-4.779,10.667-10.667S315.221,448,309.333,448z"/>
			<path d="M394.667,128H245.333c-5.888,0-10.667,4.779-10.667,10.667v42.667c0,5.888,4.779,10.667,10.667,10.667h149.333     c5.888,0,10.667-4.779,10.667-10.667v-42.667C405.333,132.779,400.555,128,394.667,128z M384,170.667H256v-21.333h128V170.667z"/>
			<circle cx="256" cy="234.667" r="21.333"/>
			<circle cx="320" cy="234.667" r="21.333"/>
			<circle cx="384" cy="234.667" r="21.333"/>
			<circle cx="256" cy="298.667" r="21.333"/>
			<circle cx="320" cy="298.667" r="21.333"/>
			<circle cx="384" cy="298.667" r="21.333"/>
			<circle cx="320" cy="362.667" r="21.333"/>
			<circle cx="384" cy="362.667" r="21.333"/>
			<circle cx="256" cy="362.667" r="21.333"/>
			<path d="M202.667,128h-21.333h-64H96c-5.888,0-10.667,4.779-10.667,10.667S90.112,149.333,96,149.333h10.667v117.333     c0,5.888,4.779,10.667,10.667,10.667h64c5.888,0,10.667-4.779,10.667-10.667V149.333h10.667c5.888,0,10.667-4.779,10.667-10.667     S208.555,128,202.667,128z M170.667,256H128V149.333h42.667V256z"/>
		</g>
	</g>
</g>
<g>
</g>
<g>
</g>
<g>
</g>
<g>
</g>
<g>
</g>
<g>
</g>
<g>
</g>
<g>
</g>
<g>
</g>
<g>
</g>
<g>
</g>
<g>
</g>
<g>
</g>
<g>
</g>
<g>
</g>
</svg>
