<?xml version="1.0" encoding="iso-8859-1"?>
<!-- Generator: Adobe Illustrator 19.0.0, SVG Export Plug-In . SVG Version: 6.00 Build 0)  -->
<svg xmlns="http://www.w3.org/2000/svg" xmlns:xlink="http://www.w3.org/1999/xlink" version="1.1" id="Capa_1" x="0px" y="0px" viewBox="0 0 490.667 490.667" style="enable-background:new 0 0 490.667 490.667;" xml:space="preserve">
<g>
	<g>
		<g>
			<path d="M379.755,151.509c-4.672-3.584-11.371-2.645-14.933,2.069L226.645,336.725l-102.571-83.797     c-4.565-3.712-11.243-3.072-15.019,1.515c-3.712,4.565-3.051,11.285,1.515,15.019l111.147,90.795     c1.92,1.557,4.331,2.411,6.763,2.411c0.427,0,0.853-0.021,1.28-0.064c2.88-0.363,5.504-1.856,7.253-4.16l144.853-192     C385.408,161.728,384.469,155.051,379.755,151.509z"/>
			<path d="M245.333,0C110.059,0,0,110.059,0,245.333s110.059,245.333,245.333,245.333s245.333-110.059,245.333-245.333     S380.608,0,245.333,0z M245.333,469.333c-123.52,0-224-100.48-224-224s100.48-224,224-224s224,100.48,224,224     S368.853,469.333,245.333,469.333z"/>
		</g>
	</g>
</g>
<g>
</g>
<g>
</g>
<g>
</g>
<g>
</g>
<g>
</g>
<g>
</g>
<g>
</g>
<g>
</g>
<g>
</g>
<g>
</g>
<g>
</g>
<g>
</g>
<g>
</g>
<g>
</g>
<g>
</g>
</svg>
