<?xml version="1.0" encoding="iso-8859-1"?>
<!-- Generator: Adobe Illustrator 19.0.0, SVG Export Plug-In . SVG Version: 6.00 Build 0)  -->
<svg xmlns="http://www.w3.org/2000/svg" xmlns:xlink="http://www.w3.org/1999/xlink" version="1.1" id="Capa_1" x="0px" y="0px" viewBox="0 0 512 512" style="enable-background:new 0 0 512 512;" xml:space="preserve">
<g>
	<g>
		<g>
			<path d="M416,186.451c-5.888,0-10.667,4.779-10.667,10.667v282.667c0,5.867-4.779,10.667-10.667,10.667H32     c-5.888,0-10.667-4.8-10.667-10.667V117.117c0-5.867,4.779-10.667,10.667-10.667h282.667c5.888,0,10.667-4.779,10.667-10.667     s-4.779-10.667-10.667-10.667H32c-17.643,0-32,14.357-32,32v362.667c0,17.643,14.357,32,32,32h362.667c17.643,0,32-14.357,32-32     V197.117C426.667,191.229,421.888,186.451,416,186.451z"/>
			<path d="M498.517,13.288c-17.429-17.429-47.744-17.429-65.152,0L241.493,205.16c-1.173,1.173-2.048,2.603-2.581,4.16     l-25.024,75.093c-1.28,3.84-0.277,8.064,2.581,10.923c2.027,2.027,4.757,3.115,7.531,3.115c1.131,0,2.261-0.192,3.371-0.533     l75.093-25.024c1.579-0.512,3.008-1.408,4.16-2.581L498.517,78.419C507.2,69.715,512,58.152,512,45.843     S507.2,21.971,498.517,13.288z M483.435,63.336L293.333,253.437l-52.459,17.493l17.493-52.459L448.469,28.371     c9.344-9.344,25.621-9.344,34.987,0c4.629,4.672,7.211,10.88,7.211,17.472C490.667,52.435,488.085,58.664,483.435,63.336z"/>
		</g>
	</g>
</g>
<g>
</g>
<g>
</g>
<g>
</g>
<g>
</g>
<g>
</g>
<g>
</g>
<g>
</g>
<g>
</g>
<g>
</g>
<g>
</g>
<g>
</g>
<g>
</g>
<g>
</g>
<g>
</g>
<g>
</g>
</svg>
