<?xml version="1.0" encoding="iso-8859-1"?>
<!-- Generator: Adobe Illustrator 19.0.0, SVG Export Plug-In . SVG Version: 6.00 Build 0)  -->
<svg version="1.1" id="Capa_1" xmlns="http://www.w3.org/2000/svg" xmlns:xlink="http://www.w3.org/1999/xlink" x="0px" y="0px"
	 viewBox="0 0 512.002 512.002" style="enable-background:new 0 0 512.002 512.002;" xml:space="preserve">
<g>
	<g>
		<g>
			<path d="M503.468,486.401h-34.133V227.35l28.317,26.364c1.65,1.529,3.733,2.287,5.817,2.287c2.283,0,4.567-0.912,6.242-2.717
				c3.217-3.45,3.025-8.85-0.425-12.062l-42.386-39.463c-0.064-0.065-0.13-0.119-0.195-0.182L261.818,10.822
				c-3.283-3.05-8.35-3.05-11.633,0L45.299,201.578c-0.065,0.063-0.132,0.116-0.195,0.181L2.718,241.222
				c-3.45,3.212-3.642,8.613-0.425,12.063c3.208,3.45,8.617,3.633,12.058,0.429l28.317-26.364v259.052H8.535
				c-4.717,0-8.533,3.821-8.533,8.533s3.817,8.533,8.533,8.533h42.667h409.6h42.667c4.717,0,8.533-3.821,8.533-8.533
				S508.185,486.401,503.468,486.401z M452.268,486.401H59.735V211.459L256.001,28.726l196.267,182.733V486.401z"/>
			<path d="M221.868,196.126c-0.168,0-0.308,0.086-0.474,0.096h-59.259c-14.117,0-25.6,11.483-25.6,25.6v187.733
				c0,14.117,11.483,25.6,25.6,25.6h187.733c14.117,0,25.6-11.483,25.6-25.6V221.822c0-14.117-11.483-25.6-25.6-25.6H290.61
				c-0.166-0.009-0.307-0.096-0.475-0.096s-0.308,0.086-0.474,0.096h-67.317C222.177,196.213,222.036,196.126,221.868,196.126z
				 M290.135,272.926c4.717,0,8.533-3.821,8.533-8.533v-51.104h51.2c4.708,0,8.533,3.829,8.533,8.533v187.733
				c0,4.704-3.825,8.533-8.533,8.533H162.135c-4.708,0-8.533-3.829-8.533-8.533V221.822c0-4.704,3.825-8.533,8.533-8.533h51.2
				v51.104c0,4.713,3.817,8.533,8.533,8.533H290.135z M230.401,213.289h51.2v42.571h-51.2V213.289z"/>
		</g>
	</g>
</g>
<g>
</g>
<g>
</g>
<g>
</g>
<g>
</g>
<g>
</g>
<g>
</g>
<g>
</g>
<g>
</g>
<g>
</g>
<g>
</g>
<g>
</g>
<g>
</g>
<g>
</g>
<g>
</g>
<g>
</g>
</svg>
