<?xml version="1.0" encoding="iso-8859-1"?>
<!-- Generator: Adobe Illustrator 19.0.0, SVG Export Plug-In . SVG Version: 6.00 Build 0)  -->
<svg xmlns="http://www.w3.org/2000/svg" xmlns:xlink="http://www.w3.org/1999/xlink" version="1.1" id="Capa_1" x="0px" y="0px" viewBox="0 0 512.005 512.005" style="enable-background:new 0 0 512.005 512.005;" xml:space="preserve">
<g>
	<g>
		<g>
			<path d="M309.333,245.336c-5.888,0-10.667,4.779-10.667,10.667v128h-85.333V94.189c0-4.245-2.517-8.085-6.421-9.771     L61.931,21.336h236.736v128c0,5.888,4.779,10.667,10.667,10.667S320,155.224,320,149.336V10.669     c0-5.888-4.779-10.667-10.667-10.667H10.667c-0.192,0-0.341,0.107-0.533,0.107C9.707,0.131,9.301,0.28,8.875,0.365     C7.659,0.579,6.549,0.941,5.504,1.517C5.291,1.645,5.035,1.624,4.821,1.752c-0.235,0.149-0.32,0.427-0.555,0.597     C3.328,3.075,2.56,3.928,1.92,4.909C1.664,5.293,1.387,5.592,1.173,5.997C0.469,7.427,0,8.984,0,10.669v384v12.715     c0,4.075,2.325,7.787,5.973,9.579l192,93.952c1.493,0.725,3.093,1.088,4.693,1.088c1.963,0,3.925-0.533,5.653-1.621     c3.115-1.941,5.013-5.376,5.013-9.045v-96h96c5.888,0,10.667-4.779,10.667-10.667V256.003     C320,250.115,315.221,245.336,309.333,245.336z M192,484.248l-170.667-83.52v-6.059V26.947L192,101.187V484.248z"/>
			<path d="M511.189,198.616c-0.555-1.323-1.344-2.517-2.325-3.499L402.219,88.472c-4.16-4.16-10.923-4.16-15.083,0     c-4.16,4.16-4.16,10.923,0,15.083l88.448,88.448H245.333c-5.888,0-10.667,4.779-10.667,10.667s4.779,10.667,10.667,10.667     h230.251l-88.448,88.448c-4.16,4.16-4.16,10.923,0,15.083c2.069,2.091,4.8,3.136,7.531,3.136s5.461-1.045,7.552-3.115     l106.645-106.645c0.981-0.981,1.771-2.176,2.325-3.477C512.277,204.163,512.277,201.219,511.189,198.616z"/>
		</g>
	</g>
</g>
<g>
</g>
<g>
</g>
<g>
</g>
<g>
</g>
<g>
</g>
<g>
</g>
<g>
</g>
<g>
</g>
<g>
</g>
<g>
</g>
<g>
</g>
<g>
</g>
<g>
</g>
<g>
</g>
<g>
</g>
</svg>
