<?xml version="1.0" encoding="iso-8859-1"?>
<!-- Generator: Adobe Illustrator 19.0.0, SVG Export Plug-In . SVG Version: 6.00 Build 0)  -->
<svg xmlns="http://www.w3.org/2000/svg" xmlns:xlink="http://www.w3.org/1999/xlink" version="1.1" id="Capa_1" x="0px" y="0px" viewBox="0 0 512 512" style="enable-background:new 0 0 512 512;" xml:space="preserve">
<g>
	<g>
		<path d="M511.701,73.152c-0.128-0.789-0.192-1.579-0.469-2.325c-0.299-0.789-0.789-1.429-1.259-2.091    c-0.277-0.405-0.405-0.875-0.747-1.259c-0.043-0.064-0.128-0.085-0.171-0.128c-0.597-0.619-1.344-1.045-2.069-1.515    c-0.448-0.277-0.832-0.683-1.323-0.896c-0.555-0.235-1.173-0.277-1.771-0.427c-0.768-0.192-1.515-0.448-2.283-0.469    c-0.107,0-0.192-0.043-0.277-0.043H10.667c-0.085,0-0.149,0.043-0.235,0.043c-0.768,0.021-1.472,0.277-2.219,0.448    c-0.619,0.149-1.28,0.192-1.877,0.469c-0.405,0.171-0.747,0.533-1.152,0.768c-0.789,0.491-1.579,0.96-2.219,1.621    c-0.043,0.064-0.128,0.064-0.171,0.128c-0.341,0.384-0.469,0.853-0.747,1.259c-0.469,0.683-0.981,1.323-1.28,2.091    c-0.277,0.747-0.341,1.536-0.469,2.325C0.235,73.664,0,74.133,0,74.667v362.667C0,443.221,4.779,448,10.667,448h490.667    c5.888,0,10.667-4.779,10.667-10.667V74.667C512,74.133,511.765,73.664,511.701,73.152z M473.835,85.333L256,284.224    L38.165,85.333H473.835z M490.667,426.667H21.333V98.837l227.477,207.701c2.048,1.856,4.608,2.795,7.189,2.795    s5.141-0.939,7.189-2.795L490.667,98.837V426.667z"/>
	</g>
</g>
<g>
</g>
<g>
</g>
<g>
</g>
<g>
</g>
<g>
</g>
<g>
</g>
<g>
</g>
<g>
</g>
<g>
</g>
<g>
</g>
<g>
</g>
<g>
</g>
<g>
</g>
<g>
</g>
<g>
</g>
</svg>
