<?xml version="1.0" encoding="iso-8859-1"?>
<!-- Generator: Adobe Illustrator 19.0.0, SVG Export Plug-In . SVG Version: 6.00 Build 0)  -->
<svg version="1.1" id="Capa_1" xmlns="http://www.w3.org/2000/svg" xmlns:xlink="http://www.w3.org/1999/xlink" x="0px" y="0px"
	 viewBox="0 0 512.001 512.001" style="enable-background:new 0 0 512.001 512.001;" xml:space="preserve">
<g>
	<g>
		<g>
			<path d="M256.001,238.906c47.05,0,85.333-38.279,85.333-85.333c0-47.054-38.283-85.333-85.333-85.333
				s-85.333,38.279-85.333,85.333C170.667,200.627,208.951,238.906,256.001,238.906z M256.001,85.306
				c37.642,0,68.267,30.625,68.267,68.267c0,37.642-30.625,68.267-68.267,68.267c-37.642,0-68.267-30.625-68.267-68.267
				C187.734,115.931,218.359,85.306,256.001,85.306z"/>
			<path d="M121.917,217.818l126.825,204.779c1.558,2.513,4.3,4.042,7.258,4.042c2.958,0,5.7-1.529,7.258-4.042l126.958-205
				c8.608-14.908,14.333-29.775,17.008-44.187c1.575-8.508,2.375-17.233,2.375-25.933c0-19.925-4.083-39.267-12.142-57.492
				c-7.775-17.567-18.883-33.342-33.025-46.892c-14.108-13.517-30.525-24.133-48.808-31.558c-37.817-15.342-81.433-15.342-119.25,0
				c-18.283,7.425-34.7,18.042-48.808,31.558c-14.142,13.55-25.25,29.325-33.025,46.892c-8.058,18.225-12.142,37.567-12.142,57.492
				c0,8.7,0.8,17.425,2.375,25.938C107.451,187.822,113.176,202.689,121.917,217.818z M130.159,96.885
				c6.858-15.517,16.683-29.467,29.208-41.467c12.55-12.017,27.158-21.463,43.425-28.067c16.858-6.842,34.758-10.313,53.208-10.313
				s36.35,3.471,53.208,10.313c16.267,6.604,30.875,16.05,43.425,28.067c12.525,12,22.35,25.95,29.208,41.467
				c7.092,16.037,10.692,33.058,10.692,50.592c0,7.658-0.7,15.337-2.092,22.821c-2.317,12.5-7.367,25.538-14.875,38.537
				L256.001,401.897L136.567,209.056c-7.642-13.221-12.692-26.258-15.008-38.754c-1.392-7.487-2.092-15.167-2.092-22.825
				C119.467,129.943,123.067,112.922,130.159,96.885z"/>
			<path d="M510.926,499.293l-85.333-153.6c-1.5-2.708-4.358-4.387-7.458-4.387h-89.767c-4.717,0-8.533,3.821-8.533,8.533
				s3.817,8.533,8.533,8.533h84.742l75.858,136.533H23.034l75.858-136.533h84.742c4.717,0,8.533-3.821,8.533-8.533
				s-3.817-8.533-8.533-8.533H93.867c-3.1,0-5.958,1.679-7.458,4.387l-85.333,153.6c-1.467,2.646-1.433,5.867,0.1,8.475
				c1.533,2.604,4.333,4.204,7.358,4.204h494.933c3.025,0,5.825-1.6,7.358-4.204C512.359,505.16,512.392,501.939,510.926,499.293z"
				/>
		</g>
	</g>
</g>
<g>
</g>
<g>
</g>
<g>
</g>
<g>
</g>
<g>
</g>
<g>
</g>
<g>
</g>
<g>
</g>
<g>
</g>
<g>
</g>
<g>
</g>
<g>
</g>
<g>
</g>
<g>
</g>
<g>
</g>
</svg>
