<?xml version="1.0" encoding="iso-8859-1"?>
<!-- Generator: Adobe Illustrator 19.0.0, SVG Export Plug-In . SVG Version: 6.00 Build 0)  -->
<svg xmlns="http://www.w3.org/2000/svg" xmlns:xlink="http://www.w3.org/1999/xlink" version="1.1" id="Capa_1" x="0px" y="0px" viewBox="0 0 490.667 490.667" style="enable-background:new 0 0 490.667 490.667;" xml:space="preserve">
<g>
	<g>
		<path d="M471.403,149.805c-12.373-29.227-30.059-55.488-52.587-77.995c-22.528-22.507-48.768-40.213-77.973-52.587    c-60.501-25.579-130.517-25.579-190.976,0C120.64,31.597,94.379,49.283,71.872,71.811c-22.507,22.528-40.235,48.768-52.608,77.973    C6.485,180.035,0,212.163,0,245.293s6.485,65.259,19.264,95.488c12.373,29.227,30.08,55.467,52.587,77.995    c22.528,22.528,48.768,40.213,77.973,52.587c30.251,12.779,62.379,19.264,95.509,19.264s65.259-6.485,95.488-19.264    c29.227-12.373,55.488-30.059,77.995-52.587c22.507-22.528,40.213-48.768,52.587-77.995c2.283-5.419-0.256-11.669-5.696-13.973    c-5.355-2.219-11.669,0.235-13.973,5.696c-11.264,26.667-27.413,50.624-48,71.211s-44.544,36.736-71.232,48    c-55.168,23.381-119.147,23.381-174.357,0c-26.667-11.264-50.624-27.413-71.211-48s-36.736-44.544-48-71.232    c-11.691-27.605-17.6-56.939-17.6-87.189s5.909-59.584,17.6-87.189c11.264-26.667,27.413-50.624,48-71.211    s44.544-36.736,71.232-48c55.168-23.381,119.147-23.381,174.357,0c26.667,11.264,50.624,27.413,71.211,48s36.736,44.544,48,71.232    c8.128,19.157,13.461,39.189,15.957,59.776l-44.139-44.139c-4.16-4.16-10.923-4.16-15.083,0s-4.16,10.923,0,15.083l64,64    c3.072,3.072,7.68,3.968,11.627,2.304c3.968-1.643,6.571-5.547,6.571-9.856C490.667,212.163,484.181,180.035,471.403,149.805z"/>
	</g>
</g>
<g>
</g>
<g>
</g>
<g>
</g>
<g>
</g>
<g>
</g>
<g>
</g>
<g>
</g>
<g>
</g>
<g>
</g>
<g>
</g>
<g>
</g>
<g>
</g>
<g>
</g>
<g>
</g>
<g>
</g>
</svg>
