<?xml version="1.0" encoding="iso-8859-1"?>
<!-- Generator: Adobe Illustrator 19.0.0, SVG Export Plug-In . SVG Version: 6.00 Build 0)  -->
<svg xmlns="http://www.w3.org/2000/svg" xmlns:xlink="http://www.w3.org/1999/xlink" version="1.1" id="Capa_1" x="0px" y="0px" viewBox="0 0 512 512" style="enable-background:new 0 0 512 512;" xml:space="preserve">
<g>
	<g>
		<g>
			<path d="M256,106.667c-29.376,0-56.661,11.221-76.843,31.637c-20.075,20.352-29.824,45.248-29.824,76.203     c0,5.888,4.779,10.667,10.667,10.667s10.667-4.779,10.667-10.667c0-25.045,7.744-45.056,23.659-61.184     C210.475,136.981,232.384,128,256,128c5.888,0,10.667-4.779,10.667-10.667S261.888,106.667,256,106.667z"/>
			<path d="M465.92,429.504c-58.368-53.973-60.587-86.421-60.587-215.104c0-41.877-14.165-77.547-42.133-106.069     c-20.16-20.395-45.397-34.091-73.067-40.341c5.291-7.104,8.533-15.808,8.533-25.323C298.667,19.136,279.531,0,256,0     s-42.667,19.136-42.667,42.667c0,9.515,3.243,18.219,8.512,25.323c-27.648,6.251-52.907,19.968-73.088,40.384     c-27.925,28.48-42.091,64.149-42.091,106.027c0,128.683-2.219,161.131-60.587,215.104c-3.2,2.987-4.288,7.616-2.688,11.733     c1.6,4.075,5.547,6.763,9.941,6.763H192c0,35.285,28.715,64,64,64s64-28.715,64-64h138.667c4.395,0,8.341-2.688,9.941-6.763     C470.208,437.141,469.12,432.491,465.92,429.504z M256,21.333c11.776,0,21.333,9.557,21.333,21.333S267.776,64,256,64     s-21.333-9.557-21.333-21.333S244.224,21.333,256,21.333z M256,490.667c-23.531,0-42.667-19.136-42.667-42.667h85.333     C298.667,471.531,279.531,490.667,256,490.667z M79.125,426.667C125.717,375.872,128,331.221,128,214.4     c0-36.075,12.096-66.731,35.968-91.072C188.139,98.88,220.843,85.397,256,85.397s67.861,13.483,92.011,37.888     C371.904,147.669,384,178.304,384,214.4c0,116.843,2.283,161.472,48.875,212.267H79.125z"/>
		</g>
	</g>
</g>
<g>
</g>
<g>
</g>
<g>
</g>
<g>
</g>
<g>
</g>
<g>
</g>
<g>
</g>
<g>
</g>
<g>
</g>
<g>
</g>
<g>
</g>
<g>
</g>
<g>
</g>
<g>
</g>
<g>
</g>
</svg>
