<?xml version="1.0" encoding="iso-8859-1"?>
<!-- Generator: Adobe Illustrator 19.0.0, SVG Export Plug-In . SVG Version: 6.00 Build 0)  -->
<svg xmlns="http://www.w3.org/2000/svg" xmlns:xlink="http://www.w3.org/1999/xlink" version="1.1" id="Capa_1" x="0px" y="0px" viewBox="0 0 512 512" style="enable-background:new 0 0 512 512;" xml:space="preserve">
<g>
	<g>
		<path d="M498.216,493.803L353.427,349.013c1.067-1.024,2.219-1.92,3.285-2.965c38.229-38.272,59.285-89.173,59.285-143.381    C415.997,90.923,325.075,0,213.331,0S10.664,90.923,10.664,202.667s90.923,202.667,202.667,202.667    c45.483,0,88.555-14.997,123.861-42.389l145.92,145.92c2.091,2.091,4.821,3.136,7.552,3.136c2.731,0,5.461-1.045,7.552-3.115    C502.376,504.725,502.376,497.963,498.216,493.803z M213.331,384c-99.989,0-181.333-81.344-181.333-181.333    S113.341,21.333,213.331,21.333s181.333,81.344,181.333,181.333c0,48.491-18.837,94.059-53.056,128.277S261.821,384,213.331,384z"/>
	</g>
</g>
<g>
</g>
<g>
</g>
<g>
</g>
<g>
</g>
<g>
</g>
<g>
</g>
<g>
</g>
<g>
</g>
<g>
</g>
<g>
</g>
<g>
</g>
<g>
</g>
<g>
</g>
<g>
</g>
<g>
</g>
</svg>
