<?xml version="1.0" encoding="iso-8859-1"?>
<!-- Generator: Adobe Illustrator 19.0.0, SVG Export Plug-In . SVG Version: 6.00 Build 0)  -->
<svg xmlns="http://www.w3.org/2000/svg" xmlns:xlink="http://www.w3.org/1999/xlink" version="1.1" id="Capa_1" x="0px" y="0px" viewBox="0 0 512 512" style="enable-background:new 0 0 512 512;" xml:space="preserve">
<g>
	<g>
		<g>
			<path d="M181.326,149.333c-17.643,0-32,14.357-32,32c0,17.643,14.357,32,32,32c17.643,0,32-14.357,32-32     C213.326,163.691,198.969,149.333,181.326,149.333z M181.326,192c-5.867,0-10.667-4.779-10.667-10.667s4.8-10.667,10.667-10.667     c5.867,0,10.667,4.779,10.667,10.667S187.193,192,181.326,192z"/>
			<path d="M330.66,149.333c-17.643,0-32,14.357-32,32c0,17.643,14.357,32,32,32c17.643,0,32-14.357,32-32     C362.66,163.691,348.302,149.333,330.66,149.333z M330.66,192c-5.867,0-10.667-4.779-10.667-10.667s4.8-10.667,10.667-10.667     c5.867,0,10.667,4.779,10.667,10.667S336.526,192,330.66,192z"/>
			<path d="M445.305,476.459l-37.931-341.333c-1.792-16.213-15.467-28.459-31.808-28.459H333.71l-6.379-44.779     C324.9,44.565,316.366,28.8,303.289,17.536C290.212,6.229,273.401,0,255.993,0c-36.309,0-66.325,26.027-71.36,61.867l-6.379,44.8     H136.42c-16.341,0-29.995,12.245-31.787,28.459L66.702,476.459c-1.024,9.045,1.899,18.112,7.957,24.875     C80.718,508.096,89.401,512,98.489,512h315.008c9.088,0,17.771-3.883,23.829-10.667     C443.385,494.549,446.308,485.504,445.305,476.459z M205.774,64.853c3.541-25.216,24.661-43.52,50.219-43.52     c12.288,0,24.128,4.395,33.344,12.352c9.173,7.893,15.168,18.965,16.875,31.168l5.973,41.813H199.801L205.774,64.853z      M125.817,137.472c0.597-5.397,5.163-9.472,10.603-9.472h239.168c5.44,0,10.005,4.075,10.581,9.493l32.128,289.173H93.689     L125.817,137.472z M421.433,487.104c-2.048,2.304-4.885,3.563-7.936,3.563H98.489c-3.072,0-5.888-1.259-7.936-3.563     c-2.069-2.283-3.008-5.248-2.667-8.299L91.321,448h329.365l3.435,30.805C424.441,481.877,423.502,484.821,421.433,487.104z"/>
		</g>
	</g>
</g>
<g>
</g>
<g>
</g>
<g>
</g>
<g>
</g>
<g>
</g>
<g>
</g>
<g>
</g>
<g>
</g>
<g>
</g>
<g>
</g>
<g>
</g>
<g>
</g>
<g>
</g>
<g>
</g>
<g>
</g>
</svg>
