<?xml version="1.0" encoding="iso-8859-1"?>
<!-- Generator: Adobe Illustrator 19.0.0, SVG Export Plug-In . SVG Version: 6.00 Build 0)  -->
<svg xmlns="http://www.w3.org/2000/svg" xmlns:xlink="http://www.w3.org/1999/xlink" version="1.1" id="Capa_1" x="0px" y="0px" viewBox="0 0 490.667 490.667" style="enable-background:new 0 0 490.667 490.667;" xml:space="preserve">
<g>
	<g>
		<g>
			<path d="M245.333,0C110.059,0,0,110.059,0,245.333s110.059,245.333,245.333,245.333s245.333-110.059,245.333-245.333     S380.608,0,245.333,0z M245.333,469.333c-123.52,0-224-100.48-224-224s100.48-224,224-224s224,100.48,224,224     S368.853,469.333,245.333,469.333z"/>
			<path d="M347.797,277.013c-5.44-2.219-11.691,0.235-13.995,5.675c-4.843,11.456-11.755,21.717-20.587,30.528     c-8.811,8.832-19.072,15.744-30.507,20.587c-23.659,10.005-51.115,10.005-74.731,0c-11.456-4.843-21.717-11.755-30.528-20.587     c-8.832-8.811-15.744-19.072-20.587-30.507c-2.645-6.229-4.587-12.672-5.845-19.264l25.536,12.779     c5.312,2.645,11.669,0.491,14.315-4.779c2.624-5.269,0.491-11.669-4.779-14.315l-42.667-21.333     c-3.307-1.643-7.253-1.451-10.368,0.448c-3.136,1.963-5.056,5.397-5.056,9.088c0,15.829,3.115,31.211,9.216,45.696     c5.931,13.973,14.379,26.517,25.152,37.269c10.752,10.773,23.296,19.221,37.291,25.173c14.464,6.08,29.845,9.195,45.675,9.195     c15.829,0,31.211-3.115,45.696-9.216c13.973-5.931,26.517-14.4,37.269-25.173c10.773-10.752,19.221-23.296,25.173-37.269     C355.755,285.568,353.216,279.317,347.797,277.013z"/>
			<path d="M328.277,162.368c-10.752-10.773-23.296-19.221-37.291-25.173c-28.907-12.203-62.4-12.203-91.349,0     c-13.973,5.952-26.517,14.4-37.269,25.173c-10.773,10.752-19.221,23.296-25.173,37.269c-2.283,5.44,0.256,11.691,5.675,14.016     c5.483,2.24,11.691-0.256,13.995-5.675c4.843-11.456,11.755-21.717,20.587-30.528c8.811-8.832,19.072-15.744,30.507-20.587     c23.659-10.005,51.115-10.005,74.731,0c11.456,4.843,21.717,11.755,30.528,20.587c8.832,8.811,15.744,19.072,20.587,30.507     c2.645,6.229,4.587,12.672,5.845,19.264l-25.536-12.779c-5.269-2.624-11.648-0.469-14.315,4.779     c-2.624,5.269-0.491,11.669,4.779,14.315l42.667,21.333c1.493,0.747,3.136,1.131,4.757,1.131c1.963,0,3.904-0.533,5.611-1.579     c3.136-1.963,5.056-5.397,5.056-9.088c0-15.829-3.115-31.211-9.216-45.696C347.52,185.664,339.051,173.12,328.277,162.368z"/>
		</g>
	</g>
</g>
<g>
</g>
<g>
</g>
<g>
</g>
<g>
</g>
<g>
</g>
<g>
</g>
<g>
</g>
<g>
</g>
<g>
</g>
<g>
</g>
<g>
</g>
<g>
</g>
<g>
</g>
<g>
</g>
<g>
</g>
</svg>
