<?xml version="1.0" encoding="UTF-8" standalone="no"?>
<svg
   xmlns:dc="http://purl.org/dc/elements/1.1/"
   xmlns:cc="http://creativecommons.org/ns#"
   xmlns:rdf="http://www.w3.org/1999/02/22-rdf-syntax-ns#"
   xmlns:svg="http://www.w3.org/2000/svg"
   xmlns="http://www.w3.org/2000/svg"
   xmlns:sodipodi="http://sodipodi.sourceforge.net/DTD/sodipodi-0.dtd"
   xmlns:inkscape="http://www.inkscape.org/namespaces/inkscape"
   version="1.1"
   id="Capa_1"
   x="0px"
   y="0px"
   viewBox="0 0 512 512"
   style="enable-background:new 0 0 512 512;"
   xml:space="preserve"
   sodipodi:docname="userCircle.svg"
   inkscape:version="1.0.2 (e86c870879, 2021-01-15, custom)"><metadata
   id="metadata43"><rdf:RDF><cc:Work
       rdf:about=""><dc:format>image/svg+xml</dc:format><dc:type
         rdf:resource="http://purl.org/dc/dcmitype/StillImage" /></cc:Work></rdf:RDF></metadata><defs
   id="defs41" /><sodipodi:namedview
   pagecolor="#ffffff"
   bordercolor="#666666"
   borderopacity="1"
   objecttolerance="10"
   gridtolerance="10"
   guidetolerance="10"
   inkscape:pageopacity="0"
   inkscape:pageshadow="2"
   inkscape:window-width="1304"
   inkscape:window-height="745"
   id="namedview39"
   showgrid="false"
   inkscape:zoom="0.28222656"
   inkscape:cx="998.20391"
   inkscape:cy="21.490361"
   inkscape:window-x="54"
   inkscape:window-y="-8"
   inkscape:window-maximized="1"
   inkscape:current-layer="g4" />
<g
   id="g6">
	<g
   id="g4">
		<path
   d="M256,0C114.842,0,0,114.842,0,256c0,80.766,37.636,152.869,96.247,199.822c0.251,0.264,0.566,0.437,0.849,0.667    C140.79,491.193,195.995,512,256,512c60.005,0,115.21-20.806,158.904-55.51c0.283-0.23,0.598-0.404,0.849-0.668    C474.364,408.869,512,336.766,512,256C512,114.842,397.158,0,256,0z M401.067,445.676c-40.254,30.86-90.541,49.258-145.067,49.258    c-54.526,0-104.812-18.397-145.067-49.258v-53.142c0-38.692,15.083-75.129,42.45-102.579    c14.417-14.34,31.895-25.463,50.634-32.659c14.895,9.947,32.767,15.771,51.983,15.771c19.248,0,37.151-5.841,52.06-15.818    c55.778,21.431,93.007,75.205,93.007,135.285V445.676z M179.2,179.2c0-42.346,34.45-76.8,76.8-76.8c42.35,0,76.8,34.454,76.8,76.8    S298.35,256,256,256C213.65,256,179.2,221.546,179.2,179.2z M418.133,431.299v-38.766c0-63.968-37.743-121.598-95.217-147.622    c16.644-16.946,26.95-40.138,26.95-65.711c0-51.758-42.108-93.867-93.867-93.867c-51.758,0-93.867,42.108-93.867,93.867    c0,25.581,10.312,48.78,26.965,65.728c-17.602,7.997-33.927,19.185-47.773,32.952c-30.608,30.696-47.458,71.413-47.458,114.654    v38.766c-47.188-43.676-76.8-106.082-76.8-175.299C17.067,124.25,124.25,17.067,256,17.067S494.933,124.25,494.933,256    C494.933,325.217,465.321,387.623,418.133,431.299z"
   id="path2"
   style="fill:#004455" />
	</g>
</g>
<g
   id="g8">
</g>
<g
   id="g10">
</g>
<g
   id="g12">
</g>
<g
   id="g14">
</g>
<g
   id="g16">
</g>
<g
   id="g18">
</g>
<g
   id="g20">
</g>
<g
   id="g22">
</g>
<g
   id="g24">
</g>
<g
   id="g26">
</g>
<g
   id="g28">
</g>
<g
   id="g30">
</g>
<g
   id="g32">
</g>
<g
   id="g34">
</g>
<g
   id="g36">
</g>
</svg>
