<?xml version="1.0" encoding="UTF-8" standalone="no"?>
<svg
   xmlns:dc="http://purl.org/dc/elements/1.1/"
   xmlns:cc="http://creativecommons.org/ns#"
   xmlns:rdf="http://www.w3.org/1999/02/22-rdf-syntax-ns#"
   xmlns:svg="http://www.w3.org/2000/svg"
   xmlns="http://www.w3.org/2000/svg"
   xmlns:sodipodi="http://sodipodi.sourceforge.net/DTD/sodipodi-0.dtd"
   xmlns:inkscape="http://www.inkscape.org/namespaces/inkscape"
   version="1.1"
   id="Capa_1"
   x="0px"
   y="0px"
   viewBox="0 0 512 512"
   style="enable-background:new 0 0 512 512;"
   xml:space="preserve"
   sodipodi:docname="user-admin.svg"
   inkscape:version="1.0.2 (e86c870879, 2021-01-15, custom)"><metadata
   id="metadata49"><rdf:RDF><cc:Work
       rdf:about=""><dc:format>image/svg+xml</dc:format><dc:type
         rdf:resource="http://purl.org/dc/dcmitype/StillImage" /></cc:Work></rdf:RDF></metadata><defs
   id="defs47" /><sodipodi:namedview
   pagecolor="#ffffff"
   bordercolor="#666666"
   borderopacity="1"
   objecttolerance="10"
   gridtolerance="10"
   guidetolerance="10"
   inkscape:pageopacity="0"
   inkscape:pageshadow="2"
   inkscape:window-width="1304"
   inkscape:window-height="745"
   id="namedview45"
   showgrid="false"
   inkscape:zoom="0.56445313"
   inkscape:cx="189.76476"
   inkscape:cy="309.63004"
   inkscape:window-x="54"
   inkscape:window-y="-8"
   inkscape:window-maximized="1"
   inkscape:current-layer="g8" />
<g
   id="g12">
	<g
   id="g10">
		<g
   id="g8">
			<path
   d="M319.792,263.858c1.233,0.654,2.458,1.3,3.925,2.204c4.858,2.767,9.375,5.596,13.792,8.65     c1.483,1.021,3.167,1.513,4.842,1.513c2.708,0,5.375-1.287,7.025-3.683c2.683-3.875,1.708-9.192-2.167-11.871     c-4.825-3.337-9.75-6.425-14.75-9.263c-1.492-0.929-3.067-1.779-4.692-2.637c-5.585-3.065-11.436-5.847-17.417-8.454     c29.352-25.062,48.05-62.255,48.05-103.784C358.4,61.25,297.15,0,221.867,0S85.333,61.25,85.333,136.533     c0,41.521,18.692,78.706,48.032,103.768C53.024,275.229,0,355.105,0,443.733v59.733C0,508.179,3.817,512,8.533,512     s8.533-3.821,8.533-8.533v-59.733c0-85.231,53.141-161.657,132.55-191.564c20.986,13.16,45.705,20.897,72.25,20.897     c26.543,0,51.26-7.735,72.245-20.894C302.967,255.528,311.571,259.352,319.792,263.858z M102.4,136.533     c0-65.875,53.592-119.467,119.467-119.467s119.467,53.592,119.467,119.467S287.742,256,221.867,256S102.4,202.408,102.4,136.533z     "
   id="path2" />
			<path
   d="M504.125,366.958l-21.825-1.679c-1.775-5.854-4.133-11.521-7.033-16.938l14.258-16.629c2.9-3.387,2.7-8.433-0.45-11.588     l-24.133-24.133c-3.15-3.163-8.217-3.35-11.583-0.446L436.725,309.8c-5.417-2.904-11.083-5.254-16.942-7.033l-1.675-21.821     c-0.342-4.446-4.05-7.879-8.508-7.879h-34.133c-4.458,0-8.167,3.433-8.508,7.879l-1.675,21.821     c-5.858,1.779-11.525,4.129-16.942,7.033l-16.633-14.254c-3.383-2.904-8.433-2.708-11.583,0.446l-24.133,24.133     c-3.15,3.154-3.35,8.2-0.45,11.588l14.258,16.629c-2.9,5.417-5.258,11.083-7.033,16.938l-21.825,1.679     c-4.442,0.342-7.875,4.05-7.875,8.508V409.6c0,4.458,3.433,8.167,7.875,8.508l21.825,1.679     c1.775,5.854,4.133,11.521,7.033,16.938l-14.258,16.629c-2.9,3.387-2.7,8.433,0.45,11.588l24.133,24.133     c3.15,3.154,8.2,3.342,11.583,0.446l16.633-14.254c5.417,2.904,11.083,5.254,16.942,7.033l1.675,21.821     c0.342,4.446,4.05,7.879,8.508,7.879H409.6c4.458,0,8.167-3.433,8.508-7.879l1.675-21.821c5.858-1.779,11.525-4.129,16.942-7.033     l16.633,14.254c3.367,2.896,8.433,2.7,11.583-0.446l24.133-24.133c3.15-3.154,3.35-8.2,0.45-11.588l-14.258-16.629     c2.9-5.417,5.258-11.083,7.033-16.938l21.825-1.679c4.442-0.342,7.875-4.05,7.875-8.508v-34.133     C512,371.008,508.567,367.3,504.125,366.958z M494.933,401.696l-19.975,1.538c-3.717,0.287-6.817,2.958-7.658,6.592     c-1.9,8.25-5.158,16.1-9.683,23.333c-1.983,3.163-1.675,7.246,0.75,10.079l13.05,15.225l-12.958,12.958l-15.225-13.05     c-2.833-2.429-6.917-2.729-10.075-0.754c-7.233,4.525-15.083,7.783-23.333,9.683c-3.633,0.837-6.308,3.942-6.592,7.662     l-1.533,19.971h-18.333l-1.533-19.971c-0.283-3.721-2.958-6.825-6.592-7.663c-8.25-1.9-16.1-5.158-23.333-9.683     c-3.167-1.975-7.25-1.675-10.075,0.754l-15.225,13.05l-12.958-12.958l13.05-15.225c2.425-2.833,2.733-6.917,0.75-10.079     c-4.525-7.233-7.783-15.083-9.683-23.333c-0.842-3.633-3.942-6.304-7.658-6.592l-19.975-1.538v-18.325l19.975-1.538     c3.717-0.287,6.817-2.958,7.658-6.592c1.9-8.25,5.158-16.1,9.683-23.333c1.983-3.163,1.675-7.246-0.75-10.079l-13.05-15.225     l12.958-12.958l15.225,13.05c2.825,2.425,6.908,2.729,10.075,0.754c7.233-4.525,15.083-7.783,23.333-9.683     c3.633-0.837,6.308-3.942,6.592-7.662l1.533-19.971H401.7l1.533,19.971c0.283,3.721,2.958,6.825,6.592,7.663     c8.25,1.9,16.1,5.158,23.333,9.683c3.158,1.975,7.242,1.671,10.075-0.754l15.225-13.05l12.958,12.958l-13.05,15.225     c-2.425,2.833-2.733,6.917-0.75,10.079c4.525,7.233,7.783,15.083,9.683,23.333c0.842,3.633,3.942,6.304,7.658,6.592l19.975,1.538     V401.696z"
   id="path4" />
			<path
   d="M392.533,341.333c-28.233,0-51.2,22.967-51.2,51.2c0,28.233,22.967,51.2,51.2,51.2c28.233,0,51.2-22.967,51.2-51.2     C443.733,364.3,420.767,341.333,392.533,341.333z M392.533,426.667c-18.825,0-34.133-15.312-34.133-34.133     c0-18.821,15.308-34.133,34.133-34.133c18.825,0,34.133,15.312,34.133,34.133C426.667,411.354,411.358,426.667,392.533,426.667z"
   id="path6" />
		</g>
	</g>
</g>
<g
   id="g14">
</g>
<g
   id="g16">
</g>
<g
   id="g18">
</g>
<g
   id="g20">
</g>
<g
   id="g22">
</g>
<g
   id="g24">
</g>
<g
   id="g26">
</g>
<g
   id="g28">
</g>
<g
   id="g30">
</g>
<g
   id="g32">
</g>
<g
   id="g34">
</g>
<g
   id="g36">
</g>
<g
   id="g38">
</g>
<g
   id="g40">
</g>
<g
   id="g42">
</g>
</svg>
