<?xml version="1.0" encoding="iso-8859-1"?>
<!-- Generator: Adobe Illustrator 19.0.0, SVG Export Plug-In . SVG Version: 6.00 Build 0)  -->
<svg xmlns="http://www.w3.org/2000/svg" xmlns:xlink="http://www.w3.org/1999/xlink" version="1.1" id="Capa_1" x="0px" y="0px" viewBox="0 0 490.667 490.667" style="enable-background:new 0 0 490.667 490.667;" xml:space="preserve">
<g>
	<g>
		<g>
			<path d="M418.837,71.829C372.544,25.515,310.912,0,245.333,0C110.059,0,0,110.059,0,245.333     c0,65.579,25.515,127.211,71.829,173.504c46.293,46.315,107.925,71.829,173.504,71.829     c135.275,0,245.333-110.059,245.333-245.333C490.667,179.755,465.152,118.123,418.837,71.829z M245.333,469.333     c-59.883,0-116.139-23.296-158.421-65.579c-42.283-42.283-65.579-98.539-65.579-158.421c0-123.52,100.48-224,224-224     c59.883,0,116.139,23.296,158.421,65.579c42.283,42.283,65.579,98.539,65.579,158.421     C469.333,368.853,368.853,469.333,245.333,469.333z"/>
			<path d="M245.333,341.333c-5.888,0-10.667,4.779-10.667,10.667v21.333c0,5.888,4.779,10.667,10.667,10.667     S256,379.221,256,373.333V352C256,346.112,251.221,341.333,245.333,341.333z"/>
			<path d="M245.333,106.667c-5.888,0-10.667,4.779-10.667,10.667v192c0,5.888,4.779,10.667,10.667,10.667S256,315.221,256,309.333     v-192C256,111.445,251.221,106.667,245.333,106.667z"/>
		</g>
	</g>
</g>
<g>
</g>
<g>
</g>
<g>
</g>
<g>
</g>
<g>
</g>
<g>
</g>
<g>
</g>
<g>
</g>
<g>
</g>
<g>
</g>
<g>
</g>
<g>
</g>
<g>
</g>
<g>
</g>
<g>
</g>
</svg>
